<svg xmlns="http://www.w3.org/2000/svg" version="1.1" viewBox="0 0 54.16 42.38" height="2em" width="2.5em"><g rel="mainfill" name="symbol" transform="translate(-3.005319148936173,-8.83563818322851) scale(0.6010638297872338)"><path fill="#61A7F8" d="M89.2,14.7H10.8c-3.2,0-5.8,2.7-5.8,6v58.5c0,3.3,2.6,6,5.8,6h78.4c3.2,0,5.8-2.7,5.8-6V20.7    C95.1,17.4,92.4,14.7,89.2,14.7z M10.8,18.7h78.4c1,0,1.8,0.9,1.8,2v44.1L66.9,35.8c-1.6-2-4.5-2-6.1,0L42.4,58.6    c-1.6,2-4.5,2-6.1,0l-8.2-9.9c-1.6-2-4.5-2-6.1,0L8.9,64.5V20.7C8.9,19.6,9.8,18.7,10.8,18.7z"></path><circle fill="#e65142" cx="39.5" cy="32.7" r="8.1"></circle></g></svg>